<?xml version="1.0" encoding="utf-8"?>
<!-- Generator: Adobe Illustrator 16.0.0, SVG Export Plug-In . SVG Version: 6.00 Build 0)  -->
<svg version="1.2" baseProfile="tiny" id="Layer_1" xmlns="http://www.w3.org/2000/svg" xmlns:xlink="http://www.w3.org/1999/xlink"
	 x="0px" y="0px" width="483px" height="124px" viewBox="0 0 483 124" xml:space="preserve">
<g>
	<g>
		<path fill="#FFFFFF" d="M416.309,108.984c5.523-0.318,7.049-1.119,11.455-11.852l17.619-43.037h1.357l21.705,48.965
			c2.082,4.645,4.006,5.924,8.168,5.924v2.846c-5.527-0.082-9.051-0.242-12.254-0.242c-3.201,0-6.646,0.16-12.473,0.242v-2.846
			c4.707,0,5.986-0.797,5.986-2.961c0-0.881-0.561-2.564-2.24-6.568l-3.105-7.379h-17.555l-2.65,6.43
			c-2.002,5.605-2.211,6.637-2.211,7.436c0,2.084,0.453,2.965,5.713,3.043v2.846c-7.18-0.242-7.98-0.242-9.906-0.242
			c-2.002,0-2.803,0-9.609,0.242V108.984z M451.031,88.619l-7.918-18.824l-6.902,18.824H451.031z"/>
		<path fill="#FFFFFF" d="M269.168,108.984c5.203-0.078,6.645-1.998,6.645-6.484V63.258c0-4.486-1.441-6.408-6.645-6.486v-2.916
			c2.719,0.08,6.645,0.24,10.729,0.24c12.254,0,22.104-0.16,29.553-0.24l0.32,13.965h-2.561c-1.285-7.686-4.729-10.408-14.34-10.408
			h-6.965v22.975h6.164c7.291,0,8.328-2.473,8.893-7.518h2.721c-0.08,3.121-0.16,6.084-0.16,8.646c0,3.766,0.08,6.809,0.16,10.012
			h-2.721c0-6.326-2.004-7.76-8.971-7.76h-6.086v18.891c0,3.684,1.521,5.688,9.051,5.688c8.168,0,13.855-1.521,15.773-11.613h2.725
			c-0.482,3.846-1.201,11.012-1.201,15.098c-7.77-0.082-17.938-0.242-30.514-0.242c-6.166,0-10.973,0.16-12.57,0.242V108.984z"/>
		<path fill="#FFFFFF" d="M321.459,108.984c5.207-0.078,6.648-1.998,6.648-6.484V63.258c0-4.486-1.441-6.408-6.648-6.486v-2.916
			c3.768,0.08,6.971,0.24,9.932,0.24c5.205,0,10.492-0.24,15.697-0.24c13.932,0,18.34,7.48,18.34,15.328
			c0,5.447-3.365,11.533-11.135,13.936l10.012,18.418c3.604,6.65,5.527,8.17,10.09,8.809v1.924c-1.201,0.08-2.402,0.16-3.686,0.16
			c-10.648,0-15.053-3.684-19.537-13.215l-3.123-6.393c-3.361-7.127-4.482-7.688-9.852-7.77V102.5c0,4.486,1.443,6.406,6.648,6.484
			v2.846c-6.406-0.162-9.131-0.242-11.693-0.242s-5.283,0.08-11.693,0.242V108.984z M338.197,81.668
			c1.521,0.32,3.686,0.561,5.289,0.561c7.205,0,11.529-3.113,11.529-10.883c0-5.846-2.963-14.574-13.375-14.574
			c-1.439,0-2.322,0.078-3.443,0.32V81.668z"/>
		<path fill="#FFFFFF" d="M385.783,108.984c5.207-0.078,6.645-1.998,6.645-6.484V58.373h-7.047c-6.404,0-10.652,1.762-11.131,11.852
			h-2.961l0.479-16.369c8.568,0.08,17.139,0.162,25.705,0.24c8.57,0.08,17.137-0.16,25.707-0.24l0.482,16.369h-2.963
			c-0.48-10.09-4.725-11.852-11.133-11.852h-7.047V102.5c0,4.486,1.439,6.406,6.646,6.484v2.846
			c-6.404-0.162-9.129-0.242-11.693-0.242c-2.561,0-5.283,0.08-11.689,0.242V108.984z"/>
		<path fill="#FFFFFF" d="M277.225,42.354l-4.613-9.703h-2.16v9.703h-6.41V16.279h10.328c5.785,0,8.898,4.102,8.898,8.387
			c0,3.553-2.197,5.787-4.248,6.812l5.641,10.875H277.225z M274.076,22.029h-3.625v5.273h3.625c1.758,0,2.783-1.281,2.783-2.637
			S275.834,22.029,274.076,22.029z"/>
		<path fill="#FFFFFF" d="M302.49,42.574c-3.99,0-7.25-0.732-9.887-3.443l4.102-4.102c1.355,1.355,3.734,1.832,5.822,1.832
			c2.527,0,3.736-0.842,3.736-2.344c0-0.623-0.146-1.135-0.514-1.539c-0.33-0.328-0.879-0.586-1.721-0.695l-3.15-0.439
			c-2.307-0.33-4.064-1.098-5.236-2.307c-1.209-1.246-1.795-3.004-1.795-5.236c0-4.762,3.59-8.24,9.521-8.24
			c3.736,0,6.557,0.879,8.789,3.113l-4.027,4.027c-1.648-1.648-3.809-1.537-4.943-1.537c-2.234,0-3.15,1.281-3.15,2.416
			c0,0.33,0.109,0.807,0.514,1.209c0.328,0.33,0.879,0.658,1.793,0.77l3.15,0.439c2.344,0.328,4.027,1.061,5.127,2.16
			c1.391,1.355,1.941,3.295,1.941,5.713C312.562,39.682,307.984,42.574,302.49,42.574z"/>
		<path fill="#FFFFFF" d="M323.729,42.354V16.279h6.408v26.074H323.729z"/>
		<path fill="#FFFFFF" d="M353.828,21.992v20.361h-6.408V21.992h-6.41v-5.713h19.227v5.713H353.828z"/>
		<path fill="#FFFFFF" d="M382.756,31.734v10.619h-6.408V31.734l-7.875-15.455h6.996l4.102,9.375l4.064-9.375h6.994L382.756,31.734z
			"/>
		<path fill="#FFFFFF" d="M428.381,39.645c-1.904,1.904-4.102,2.93-7.287,2.93s-5.383-1.025-7.287-2.93
			c-2.748-2.746-2.637-6.408-2.637-10.328c0-3.918-0.111-7.58,2.637-10.326c1.904-1.904,4.102-2.93,7.287-2.93
			s5.383,1.025,7.287,2.93c2.746,2.746,2.637,6.408,2.637,10.326C431.018,33.236,431.127,36.898,428.381,39.645z M423.656,22.908
			c-0.475-0.623-1.391-1.135-2.562-1.135s-2.088,0.512-2.564,1.135c-0.586,0.77-0.951,1.648-0.951,6.408
			c0,4.762,0.365,5.604,0.951,6.373c0.477,0.623,1.393,1.172,2.564,1.172s2.088-0.549,2.562-1.172
			c0.586-0.77,0.953-1.611,0.953-6.373C424.609,24.557,424.242,23.678,423.656,22.908z"/>
		<path fill="#FFFFFF" d="M448.812,21.992v4.578h9.668v5.713h-9.668v10.07h-6.408V16.279h17.725v5.713H448.812z"/>
		<path fill="#FFFFFF" d="M101.141,108.984c5.527-0.318,7.049-1.119,11.453-11.852l17.621-43.037h1.359l21.703,48.965
			c2.082,4.645,4.004,5.924,8.166,5.924v2.846c-5.525-0.082-9.049-0.242-12.252-0.242c-3.201,0-6.645,0.16-12.475,0.242v-2.846
			c4.709,0,5.988-0.797,5.988-2.961c0-0.881-0.561-2.564-2.242-6.568l-3.105-7.379h-17.551l-2.652,6.43
			c-2.004,5.605-2.211,6.637-2.211,7.436c0,2.084,0.453,2.965,5.713,3.043v2.846c-7.184-0.242-7.982-0.242-9.904-0.242
			c-2.002,0-2.803,0-9.611,0.242V108.984z M135.863,88.619l-7.918-18.824l-6.9,18.824H135.863z"/>
		<path fill="#FFFFFF" d="M165.934,108.984c5.203-0.078,6.646-1.998,6.646-6.484V63.258c0-4.486-1.443-6.408-6.646-6.486v-2.916
			c6.406,0.162,9.127,0.24,11.689,0.24c2.564,0,5.287-0.078,11.695-0.24v2.916c-5.205,0.078-6.646,2-6.646,6.486V102.5
			c0,4.164,2.32,5.525,8.969,5.525c10.572,0,15.855-1.361,17.457-11.293h2.723l-1.283,15.098c-4.002-0.082-9.848-0.082-16.654-0.162
			c-6.729-0.08-14.338-0.08-22.025-0.08c-2.404,0-4.484,0.08-5.924,0.242V108.984z"/>
		<path fill="#FFFFFF" d="M215.939,108.984c5.207-0.078,6.646-1.998,6.646-6.484V63.258c0-4.486-1.439-6.408-6.646-6.486v-2.916
			c3.846,0.162,6.971,0.24,10.17,0.24c4.967,0,9.932-0.24,14.9-0.24c8.326,0,18.494,2.916,18.494,14.527
			c0,6.326-4.961,11.533-13.451,12.893v0.162c9.611,1.361,15.775,5.447,15.775,14.814c0,4.406-1.842,8.57-4.488,11.053
			c-3.279,3.041-7.283,4.525-16.092,4.525c-5.367,0-12.012-0.242-16.178-0.242c-3.605,0-6.566,0.08-9.131,0.242V108.984z
			 M232.678,80.676h3.848c7.963,0,12.893-3.193,12.893-10.451c0-8.33-4.404-13.133-13.135-13.133h-3.605V80.676z M232.678,103.381
			c0,3.844,1.523,4.965,6.809,4.965c7.688,0,11.451-3.605,11.451-10.41c0-9.008-6.406-14.312-17.217-14.312h-1.043V103.381z"/>
		<path fill="#FFFFFF" d="M132.367,42.574c-5.42,0-9.852-3.662-9.852-9.375v-16.92h6.408v16.773c0,2.416,1.318,3.809,3.443,3.809
			c2.123,0,3.516-1.393,3.516-3.809V16.279h6.408v16.92C142.291,38.912,137.787,42.574,132.367,42.574z"/>
		<path fill="#FFFFFF" d="M169.021,42.354l-8.35-13.109v13.109h-6.408V16.279h5.602l8.35,13.111V16.279h6.41v26.074H169.021z"/>
		<path fill="#FFFFFF" d="M187.035,42.354V16.279h6.41v26.074H187.035z"/>
		<path fill="#FFFFFF" d="M216.586,42.354h-4.76l-8.605-26.074h6.627l4.395,14.576l4.322-14.576h6.664L216.586,42.354z"/>
		<path fill="#FFFFFF" d="M234.822,42.354V16.279h17.725v5.713H241.23v4.359h9.668v5.713h-9.668v4.576h11.316v5.713H234.822z"/>
	</g>
	<g>
		<g>
			<path fill="#FFFFFF" d="M51.355,5.023c-16.363,0-29.469,2.67-41.244,8.402l-2.727,1.326v3.033v45.178
				c0,7.879,1.648,27.633,16.92,40.834c12.33,10.65,24.955,15.023,25.486,15.205l1.564,0.533l1.564-0.533
				c0.529-0.182,13.148-4.555,25.48-15.203C93.666,90.59,95.314,70.842,95.314,62.963V17.785v-3.033l-2.727-1.326
				C80.816,7.693,67.715,5.023,51.355,5.023L51.355,5.023z"/>
			<path fill="#007D43" d="M51.355,116.973l-0.781-0.266c-0.514-0.176-12.707-4.4-24.684-14.744
				c-14.514-12.547-16.082-31.453-16.082-39V16.268l1.363-0.662c11.434-5.566,24.201-8.158,40.184-8.158
				c15.979,0,28.742,2.592,40.172,8.158l1.363,0.664v46.693c0,7.545-1.566,26.449-16.074,39
				c-11.98,10.344-24.166,14.568-24.68,14.744L51.355,116.973z"/>
			<path fill="#FFF1C0" d="M51.355,12.297c-14.58,0-26.291,2.236-36.697,7.021v30.543c4.279-2.51,7.879-5.471,10.607-8.627
				c3.232,3.736,7.674,7.207,13.037,9.969c5.371-2.762,9.818-6.232,13.049-9.969c3.23,3.736,7.68,7.207,13.049,9.969
				c5.361-2.762,9.801-6.232,13.029-9.969c2.729,3.156,6.33,6.117,10.611,8.627V19.318C77.639,14.533,65.93,12.297,51.355,12.297z
				 M69.893,36.635c-4.154,0-7.08-0.615-11.223-1.479c-0.748-0.156-1.48-0.232-2.172-0.232c-1.611,0-3.035,0.381-4.186,0.924
				c-0.338,0.16-0.656,0.334-0.961,0.512c-0.297-0.178-0.625-0.352-0.953-0.512c-1.162-0.543-2.572-0.924-4.184-0.924
				c-0.691,0-1.426,0.076-2.18,0.232c-4.143,0.863-7.072,1.479-11.227,1.479c-0.586,0-1.201-0.012-1.846-0.035l1.305-14
				c0.668,0.029,1.281,0.045,1.861,0.053l0.338-4.375l1.258,0.062c0.494,0.023,0.941,0.033,1.367,0.033
				c1.457,0,2.719-0.131,4.113-0.428c0.883-0.186,1.76-0.422,2.775-0.693c0.469-0.125,0.965-0.258,1.498-0.396
				c1.832-0.447,3.498-0.207,5.021,0.662c0.291,0.164,0.578,0.354,0.85,0.564c0.273-0.209,0.562-0.4,0.863-0.568
				c1.514-0.863,3.266-1.096,4.998-0.66c0.562,0.145,1.072,0.281,1.553,0.41c1,0.268,1.865,0.498,2.732,0.682
				c1.857,0.395,3.457,0.498,5.477,0.395l1.262-0.064l0.338,4.377c0.584-0.008,1.188-0.021,1.865-0.053l1.311,14
				C71.098,36.623,70.482,36.635,69.893,36.635z"/>
			<g>
				<path fill="#FFFFFF" d="M44.984,31.104l-0.109,0.027c-3.414,0.855-5.672,1.42-8.91,1.422l0.895-11.588
					c1.729,0,3.221-0.131,4.883-0.482c0.949-0.201,1.857-0.443,2.91-0.725c0.461-0.125,0.949-0.256,1.461-0.389
					c1.127-0.277,2.15-0.141,3.109,0.406c0.352,0.197,0.623,0.414,0.832,0.604v10.936C48.418,30.758,46.654,30.68,44.984,31.104z"/>
				<path fill="#FFFFFF" d="M57.721,31.104c-1.717-0.43-3.422-0.361-5.072,0.211v-10.92c0.248-0.229,0.527-0.447,0.842-0.625
					c0.943-0.537,2.027-0.668,3.082-0.402c0.545,0.139,1.047,0.273,1.521,0.4c1.035,0.277,1.93,0.518,2.865,0.715
					c1.584,0.334,3.01,0.484,4.656,0.484c0.074,0,0.148-0.002,0.227-0.002l0.895,11.588C63.438,32.551,61.164,31.975,57.721,31.104z
					"/>
			</g>
			<g>
				<path fill="#49965F" d="M51.359,55.908c4.766-1.076,9.15-2.701,13.041-4.705c-5.369-2.762-9.818-6.232-13.049-9.969
					c-3.23,3.736-7.682,7.207-13.057,9.965C42.193,53.209,46.584,54.834,51.359,55.908z"/>
				<path fill="#05894F" d="M25.293,55.893c4.092,0.928,8.465,1.455,13.064,1.455c4.572,0,8.92-0.525,12.994-1.441
					c-4.77-1.074-9.146-2.703-13.043-4.705C34.424,53.199,30.049,54.816,25.293,55.893z"/>
				<path fill="#05894F" d="M51.352,55.906c4.072,0.916,8.42,1.441,12.99,1.441c4.6,0,8.975-0.527,13.068-1.457
					c-4.756-1.074-9.129-2.691-13.016-4.691C60.5,53.201,56.121,54.832,51.352,55.906z"/>
				<path fill="#3D925A" d="M14.658,57.277c3.709-0.15,7.27-0.625,10.635-1.385c-3.814-0.865-7.367-2.096-10.635-3.576V57.277z"/>
				<path fill="#7DAB76" d="M14.658,49.861v2.453c3.27,1.484,6.826,2.713,10.645,3.58c4.748-1.076,9.117-2.695,13-4.691
					c-5.363-2.762-9.805-6.232-13.037-9.969C22.537,44.391,18.938,47.352,14.658,49.861z"/>
				<path fill="#3D925A" d="M88.041,52.316c-3.266,1.482-6.818,2.711-10.631,3.576c3.365,0.76,6.924,1.232,10.631,1.385V52.316z"/>
				<path fill="#7DAB76" d="M88.041,52.314v-2.453c-4.281-2.51-7.883-5.471-10.611-8.627c-3.229,3.736-7.668,7.207-13.029,9.969
					c3.883,1.996,8.254,3.615,13,4.691C81.217,55.027,84.771,53.799,88.041,52.314z"/>
			</g>
			<path fill="#FFDC09" d="M83.599,63.938c-1.939-1.234-3.771-2.399-6.169-2.399s-4.229,1.167-6.168,2.401
				c-2.007,1.278-4.081,2.601-6.867,2.601s-4.864-1.322-6.873-2.601c-1.94-1.235-3.773-2.401-6.172-2.401s-4.231,1.167-6.172,2.401
				c-2.009,1.278-4.086,2.601-6.871,2.601c-2.786,0-4.862-1.322-6.868-2.601c-1.938-1.235-3.77-2.401-6.167-2.401
				c-2.399,0-4.231,1.165-6.17,2.399c-1.352,0.859-2.739,1.732-4.349,2.216c0.107,1.837,0.322,3.994,0.721,6.345
				c1.146-0.476,2.198-1.139,3.227-1.791c1.944-1.233,3.955-2.509,6.571-2.509s4.626,1.275,6.569,2.509
				c2.004,1.272,3.897,2.474,6.466,2.474c2.567,0,4.462-1.201,6.469-2.474c1.946-1.233,3.958-2.509,6.574-2.509
				s4.628,1.275,6.573,2.509c2.008,1.272,3.903,2.474,6.472,2.474c2.567,0,4.46-1.201,6.465-2.474
				c1.944-1.233,3.954-2.509,6.57-2.509s4.626,1.275,6.569,2.509c1.028,0.652,2.08,1.314,3.225,1.79
				c0.398-2.351,0.614-4.508,0.721-6.345C86.336,65.67,84.95,64.797,83.599,63.938z"/>
		</g>
		<g>
			<path fill="#FFEB98" d="M55.109,110.211v-2.903l-3.438,3.381l-2.9-2.821v-4.382l2.9,2.832l3.438-3.399v-4.786l-3.438,3.381
				l-2.9-2.82v-4.596l2.9,2.834l3.438-3.399v-5.187l-3.438,3.381l-2.9-2.82v-4.297l2.9,2.645l4.903-4.777l-5.198-4.41l-5.693,4.941
				v26.284c2.611,1.301,4.63,2.132,5.672,2.534C52.123,111.527,53.434,110.99,55.109,110.211z"/>
			<path fill="#FFEB98" d="M42.083,98.601l-3.439,3.531l-2.9-2.963v-4.56l2.9,2.877l3.439-3.451v-5.413l-3.439,3.432l-2.9-2.863
				v-4.582l2.9,2.645l4.904-4.777l-5.199-4.41l-5.693,4.941v18.2c3.32,2.525,6.562,4.562,9.428,6.172V98.601z"/>
			<path fill="#FFEB98" d="M64.697,87.253l4.904-4.777l-5.199-4.41l-5.693,4.941v25.417c2.769-1.461,6.026-3.382,9.428-5.81v-4.014
				l-3.439,3.531l-2.9-2.963v-4.56l2.9,2.877l3.439-3.451v-5.413l-3.439,3.432l-2.9-2.863v-4.582L64.697,87.253z"/>
			<path fill="#FFEB98" d="M77.724,87.253l4.904-4.777l-5.199-4.41l-5.693,4.941v16.878c0.637-0.514,1.275-1.042,1.912-1.592
				c3.134-2.712,5.588-5.771,7.516-8.949v-0.722l-3.439,3.432l-2.9-2.863v-4.582L77.724,87.253z"/>
			<path fill="#FFEB98" d="M25.617,87.253l4.904-4.777l-5.199-4.41l-5.693,4.941v2.812c2.129,4.417,5.146,8.769,9.428,12.471v-9.668
				l-3.439,3.432l-2.9-2.863v-4.582L25.617,87.253z"/>
		</g>
	</g>
</g>
</svg>
